<svg width="960" height="302" xmlns="http://www.w3.org/2000/svg" xmlns:xlink="http://www.w3.org/1999/xlink" overflow="hidden"><defs><clipPath id="clip0"><rect x="0" y="0" width="960" height="302"/></clipPath></defs><g clip-path="url(#clip0)"><rect x="0" y="0" width="960" height="301.667" fill="#FFFFFF"/><path d="M403.5 123.364C403.5 117.296 408.425 112.376 414.5 112.376L534.5 112.376C540.575 112.376 545.5 117.296 545.5 123.364L545.5 167.315C545.5 173.384 540.575 178.303 534.5 178.303L414.5 178.303C408.425 178.303 403.5 173.384 403.5 167.315Z" stroke="#2F528F" stroke-width="3" stroke-miterlimit="8" fill="none" fill-rule="evenodd"/><text font-family="Calibri,Calibri_MSFontService,sans-serif" font-weight="400" font-size="24" transform="matrix(1 0 0 0.998897 453.076 152)">Task</text><path d="M147.5 123.364C147.5 117.296 152.425 112.376 158.5 112.376L278.5 112.376C284.575 112.376 289.5 117.296 289.5 123.364L289.5 167.315C289.5 173.384 284.575 178.303 278.5 178.303L158.5 178.303C152.425 178.303 147.5 173.384 147.5 167.315Z" stroke="#2F528F" stroke-width="3" stroke-miterlimit="8" fill="none" fill-rule="evenodd"/><text font-family="Calibri,Calibri_MSFontService,sans-serif" font-weight="400" font-size="24" transform="matrix(1 0 0 0.998897 190.517 152)">Batch</text><path d="M659.5 123.364C659.5 117.296 664.425 112.376 670.5 112.376L790.5 112.376C796.575 112.376 801.5 117.296 801.5 123.364L801.5 167.315C801.5 173.384 796.575 178.303 790.5 178.303L670.5 178.303C664.425 178.303 659.5 173.384 659.5 167.315Z" stroke="#2F528F" stroke-width="3" stroke-miterlimit="8" fill="none" fill-rule="evenodd"/><text font-family="Calibri,Calibri_MSFontService,sans-serif" font-weight="400" font-size="24" transform="matrix(1 0 0 0.998897 672.879 152)">Assignment</text><path d="M289.5 145.34 403.647 145.34" stroke="#4472C4" stroke-width="3" stroke-miterlimit="8" fill="none" fill-rule="evenodd"/><path d="M545.5 145.34 659.647 145.34" stroke="#4472C4" stroke-width="3" stroke-miterlimit="8" fill="none" fill-rule="evenodd"/><text font-family="Calibri,Calibri_MSFontService,sans-serif" font-weight="400" font-size="24" transform="matrix(1 0 0 0.998897 305.891 129)">1<tspan font-size="24" x="67.4779" y="0">n</tspan><tspan font-size="24" x="255.374" y="0">1</tspan><tspan font-size="24" x="322.852" y="0">n</tspan></text></g></svg>