<svg width="960" height="302"
    xmlns="http://www.w3.org/2000/svg"
    xmlns:xlink="http://www.w3.org/1999/xlink" overflow="hidden">
    <defs>
        <clipPath id="clip0">
            <rect x="0" y="0" width="960" height="302"/>
        </clipPath>
    </defs>
    <g clip-path="url(#clip0)">
        <rect x="0" y="0" width="960" height="301.667" fill="#FFFFFF"/>
        <path d="M281.5 129.357C281.5 123.289 286.425 118.369 292.5 118.369L412.5 118.369C418.575 118.369 423.5 123.289 423.5 129.357L423.5 173.309C423.5 179.377 418.575 184.297 412.5 184.297L292.5 184.297C286.425 184.297 281.5 179.377 281.5 173.309Z" stroke="#2F528F" stroke-width="3" stroke-miterlimit="8" fill="none" fill-rule="evenodd"/>
        <text font-family="Calibri,Calibri_MSFontService,sans-serif" font-weight="400" font-size="24" transform="matrix(1 0 0 0.998897 331.331 158)">Task</text>
        <path d="M25.5001 129.357C25.5001 123.289 30.425 118.369 36.5002 118.369L156.5 118.369C162.575 118.369 167.5 123.289 167.5 129.357L167.5 173.309C167.5 179.377 162.575 184.297 156.5 184.297L36.5002 184.297C30.425 184.297 25.5001 179.377 25.5001 173.309Z" stroke="#2F528F" stroke-width="3" stroke-miterlimit="8" fill="none" fill-rule="evenodd"/>
        <text font-family="Calibri,Calibri_MSFontService,sans-serif" font-weight="400" font-size="24" transform="matrix(1 0 0 0.998897 68.7713 158)">Batch</text>
        <path d="M793.5 129.357C793.5 123.289 798.425 118.369 804.5 118.369L924.5 118.369C930.575 118.369 935.5 123.289 935.5 129.357L935.5 173.309C935.5 179.377 930.575 184.297 924.5 184.297L804.5 184.297C798.425 184.297 793.5 179.377 793.5 173.309Z" stroke="#2F528F" stroke-width="3" stroke-miterlimit="8" fill="none" fill-rule="evenodd"/>
        <text font-family="Calibri,Calibri_MSFontService,sans-serif" font-weight="400" font-size="24" transform="matrix(1 0 0 0.998897 837.486 158)">Audit</text>
        <path d="M537.5 129.357C537.5 123.289 542.425 118.369 548.5 118.369L668.5 118.369C674.575 118.369 679.5 123.289 679.5 129.357L679.5 173.309C679.5 179.377 674.575 184.297 668.5 184.297L548.5 184.297C542.425 184.297 537.5 179.377 537.5 173.309Z" stroke="#2F528F" stroke-width="3" stroke-miterlimit="8" fill="none" fill-rule="evenodd"/>
        <text font-family="Calibri,Calibri_MSFontService,sans-serif" font-weight="400" font-size="24" transform="matrix(1 0 0 0.998897 552.69 158)">Submission</text>
        <path d="M167.5 151.333 281.647 151.333" stroke="#4472C4" stroke-width="3" stroke-miterlimit="8" fill="none" fill-rule="evenodd"/>
        <path d="M423.5 151.333 537.647 151.333" stroke="#4472C4" stroke-width="3" stroke-miterlimit="8" fill="none" fill-rule="evenodd"/>
        <path d="M679.5 151.333 793.647 151.333" stroke="#4472C4" stroke-width="3" stroke-miterlimit="8" fill="none" fill-rule="evenodd"/>
        <text font-family="Calibri,Calibri_MSFontService,sans-serif" font-weight="400" font-size="24" transform="matrix(1 0 0 0.998897 184.145 132)">1<tspan font-size="24" x="67.4779" y="0">n</tspan>
            <tspan font-size="24" x="255.374" y="0">1</tspan>
            <tspan font-size="24" x="322.852" y="0">n</tspan>
            <tspan font-size="24" x="511.254" y="0">1</tspan>
            <tspan font-size="24" x="578.731" y="0">1</tspan>
        </text>
    </g>
</svg>